<?xml version="1.0" standalone="no"?>
<!DOCTYPE svg PUBLIC "-//W3C//DTD SVG 20010904//EN"
 "http://www.w3.org/TR/2001/REC-SVG-20010904/DTD/svg10.dtd">
<svg version="1.0" xmlns="http://www.w3.org/2000/svg"
 width="600.000000pt" height="600.000000pt" viewBox="0 0 600.000000 600.000000"
 preserveAspectRatio="xMidYMid meet">
<g transform="translate(0.000000,600.000000) scale(0.100000,-0.100000)"
fill="#e0bc6c" stroke="none">
<path d="M2907 4794 c-48 -7 -118 -22 -156 -34 -57 -17 -78 -19 -113 -10 -63
14 -243 12 -319 -4 -235 -50 -385 -260 -366 -515 4 -56 1 -74 -21 -119 -40
-85 -33 -215 17 -291 8 -13 14 -39 12 -57 -4 -51 18 -139 44 -178 l24 -36 -24
-48 c-28 -56 -44 -121 -45 -178 0 -33 -4 -43 -24 -52 -46 -21 -107 -85 -137
-143 -32 -65 -71 -205 -89 -323 -9 -59 -20 -91 -45 -131 -35 -55 -94 -236
-116 -356 -11 -63 -11 -68 9 -89 27 -29 104 -38 167 -20 48 13 64 37 18 25
-16 -3 -54 -9 -85 -12 -57 -5 -64 -1 -59 30 1 5 -3 6 -9 2 -6 -3 -7 -11 -4
-17 4 -6 1 -9 -7 -6 -43 15 27 314 103 443 32 53 42 81 44 120 2 48 39 216 53
241 3 7 26 -23 52 -67 l47 -79 -39 -10 c-28 -8 -48 -24 -74 -57 -19 -25 -35
-51 -34 -57 0 -6 10 2 22 18 53 71 61 76 127 90 67 13 125 6 163 -20 17 -11
17 -13 -5 -28 -12 -9 -42 -16 -66 -16 -65 0 -108 -22 -132 -69 -13 -27 -27
-41 -40 -41 -10 0 -21 -4 -25 -10 -3 -5 26 -7 78 -3 46 3 100 3 119 -1 49 -9
108 -63 111 -101 3 -37 -28 -47 -50 -16 -26 38 -67 52 -115 41 -24 -5 -58 -10
-75 -10 -58 0 -35 -17 33 -25 37 -4 89 -13 115 -21 97 -29 89 -107 -8 -82 -27
6 -59 7 -94 0 -53 -9 -53 -10 -14 -11 99 -3 144 -13 151 -34 10 -31 -21 -47
-92 -47 l-62 0 -45 -75 c-25 -41 -42 -75 -37 -75 5 0 17 14 27 30 14 25 24 30
56 30 22 0 54 7 72 16 41 19 95 85 95 117 0 14 7 30 15 37 8 7 15 22 15 34 0
21 6 22 141 33 l141 11 34 -36 c19 -20 34 -40 34 -45 0 -5 13 -23 29 -40 16
-18 38 -43 49 -56 l19 -25 97 18 97 17 52 -47 c57 -51 95 -79 102 -73 3 3 -97
91 -140 123 -8 6 -44 5 -96 -3 -104 -17 -123 -14 -127 20 -3 24 3 28 55 47 32
12 79 27 106 33 26 6 47 16 47 21 0 5 -8 7 -17 4 -10 -3 -40 -10 -68 -16 -27
-6 -72 -20 -98 -31 -53 -22 -83 -18 -92 11 -14 44 27 76 166 130 46 18 88 37
93 41 8 7 -57 4 -151 -7 -45 -5 -103 -49 -103 -78 0 -22 -31 -37 -53 -25 -12
7 -17 23 -17 51 0 37 6 47 46 85 51 47 79 57 204 75 47 6 90 16 95 21 6 6 -4
8 -28 4 -34 -5 -41 -2 -77 36 l-39 42 -78 -3 c-43 -1 -100 -3 -128 -5 -43 -2
-50 1 -50 17 0 12 19 29 54 49 70 40 196 50 252 22 69 -35 263 -191 306 -245
69 -87 202 -288 209 -315 7 -30 -16 -58 -43 -49 -14 4 -15 4 -4 -4 23 -16 -94
-45 -156 -39 -60 6 -73 -8 -15 -17 45 -8 140 7 180 28 16 8 37 26 46 40 16 25
15 28 -5 68 -28 55 -106 172 -181 271 -58 76 -174 175 -295 253 -49 32 -57 34
-144 34 -75 0 -100 -4 -136 -22 -58 -29 -94 -63 -87 -81 4 -12 -14 -16 -93
-21 -54 -4 -113 -10 -130 -13 -46 -8 -42 -26 5 -19 20 3 69 8 107 11 39 3 89
8 113 11 39 6 44 4 49 -16 5 -17 10 -20 27 -14 11 4 46 8 76 10 41 1 56 6 58
18 5 26 38 19 78 -16 l37 -33 -78 -18 c-54 -12 -92 -27 -121 -50 -45 -34 -85
-93 -77 -114 3 -7 -1 -13 -9 -14 -7 -1 -40 -3 -72 -5 -33 -2 -83 -5 -112 -8
l-52 -5 -5 46 c-5 50 -20 67 -91 104 -31 17 -53 20 -102 17 -57 -3 -62 -2 -53
14 5 9 14 20 21 24 7 5 8 3 3 -7 -7 -11 -6 -12 6 -3 13 10 64 12 99 3 11 -3
16 5 18 29 2 23 8 32 21 32 20 0 51 30 51 48 0 21 -64 45 -124 48 l-59 3 -49
88 -49 88 22 47 c43 93 145 161 330 222 l105 34 65 -20 c74 -24 67 -21 149
-76 98 -65 179 -86 309 -79 112 6 167 19 248 60 51 26 152 126 178 178 9 16
23 29 33 29 42 0 317 -53 418 -81 139 -38 218 -81 262 -142 l33 -45 -53 -16
c-133 -39 -292 -174 -431 -366 -17 -24 -17 -24 -12 -2 4 13 2 22 -5 22 -8 0
-11 -30 -8 -104 1 -57 0 -102 -3 -100 -3 2 -15 42 -25 89 -10 47 -22 85 -26
85 -5 0 -8 -3 -8 -7 0 -15 38 -148 50 -178 6 -16 14 -85 17 -152 10 -200 18
-140 13 88 -6 244 -14 215 109 362 105 126 231 219 337 250 l52 15 35 -76 c49
-106 79 -196 115 -342 34 -133 72 -343 72 -391 0 -16 4 -29 10 -29 5 0 7 7 3
17 -5 14 -1 15 30 10 l36 -6 30 127 c90 381 140 745 122 877 -17 121 -45 162
-232 345 -92 91 -172 178 -178 193 -15 39 -14 115 5 297 24 241 9 318 -80 396
-106 93 -302 169 -496 193 -116 15 -406 12 -513 -5z m486 -16 c53 -6 97 -14
97 -17 0 -3 12 -6 28 -7 51 -1 106 -12 110 -23 2 -6 7 -9 11 -7 18 11 231 -94
231 -114 0 -5 16 -18 36 -30 22 -14 33 -28 30 -37 -4 -8 -1 -11 5 -7 15 9 30
-18 18 -32 -7 -8 -6 -15 2 -20 8 -5 9 -3 4 6 -5 9 -4 11 3 6 11 -7 9 -258 -2
-366 -3 -25 -6 -69 -7 -97 l-2 -53 -96 -1 c-53 -1 -260 -5 -461 -9 l-365 -7
459 0 460 1 7 -29 c5 -15 5 -33 2 -38 -3 -6 -2 -7 4 -4 10 7 49 -52 44 -68 -1
-5 1 -7 5 -2 10 10 65 -43 57 -56 -3 -6 -2 -8 3 -4 13 8 47 -20 39 -32 -3 -7
0 -8 9 -5 16 6 40 -28 28 -42 -4 -5 2 -2 12 6 18 14 19 13 14 -7 -7 -25 6 -40
18 -22 5 8 3 9 -6 4 -9 -6 -11 -4 -5 4 11 18 75 -46 68 -67 -4 -9 -2 -13 4 -9
10 6 26 -9 75 -73 9 -12 14 -28 12 -35 -3 -6 2 -17 10 -24 8 -7 12 -19 9 -27
-3 -8 0 -14 5 -14 12 0 10 -288 -2 -330 -4 -14 -7 -43 -7 -65 0 -23 -3 -34 -8
-27 -4 7 -6 -10 -5 -38 2 -28 -1 -48 -6 -45 -5 3 -8 -7 -8 -22 1 -37 -12 -114
-23 -134 -4 -9 -11 -38 -14 -65 -4 -27 -10 -62 -16 -79 -5 -16 -11 -46 -14
-65 -21 -130 -44 -174 -73 -137 -8 10 -25 104 -38 207 -2 14 -15 69 -29 123
-14 54 -23 102 -20 107 3 4 2 10 -2 12 -14 6 -52 125 -49 152 2 14 0 23 -5 20
-10 -6 -43 55 -35 64 3 3 -1 13 -10 23 -24 26 -25 78 -3 181 10 51 19 98 18
103 -1 24 -19 -41 -34 -125 l-17 -91 -21 33 c-11 18 -19 35 -17 37 1 2 -5 8
-14 13 -9 5 -14 14 -10 19 3 5 0 8 -8 7 -7 -2 -12 3 -10 10 1 8 -3 12 -10 9
-7 -2 -22 3 -33 13 -24 21 -147 68 -218 84 l-51 11 3 50 c1 28 9 102 16 165
12 104 12 131 1 119 -2 -2 -9 -74 -16 -159 -7 -85 -16 -158 -19 -162 -7 -8
-101 11 -118 24 -7 5 -17 7 -23 3 -5 -3 -49 1 -97 10 -48 9 -100 17 -115 17
-15 1 -25 5 -22 9 2 4 -1 11 -7 15 -8 4 -9 3 -5 -5 5 -8 -6 -11 -38 -9 l-45 1
-30 81 c-17 45 -42 112 -56 149 -31 85 -31 97 1 163 24 49 26 60 19 136 -8 97
-8 196 0 216 4 12 8 12 22 1 12 -10 15 -10 9 -1 -8 14 39 36 56 26 7 -5 8 -2
3 6 -6 9 -2 10 15 5 14 -4 20 -3 17 3 -4 5 11 17 33 27 45 20 57 42 35 64 -12
13 -35 16 -102 14 -48 -2 -92 2 -98 7 -7 6 -18 32 -25 58 -7 26 -22 59 -32 74
-21 30 -23 42 -6 32 7 -4 8 -3 4 4 -4 7 -14 12 -22 12 -9 0 -12 5 -8 13 4 6 4
9 -1 5 -9 -8 -52 42 -47 55 1 5 -2 5 -8 2 -14 -9 -62 34 -53 48 4 6 1 7 -6 3
-7 -5 -25 -3 -41 4 -22 9 -26 15 -18 24 6 6 18 12 27 13 9 0 39 6 66 12 28 7
79 14 115 17 36 4 66 7 68 9 9 8 284 3 365 -7z m-758 -43 c219 -46 336 -182
369 -431 l6 -40 -48 -15 c-32 -10 -55 -12 -72 -6 -23 9 -27 18 -42 103 -32
191 -125 318 -277 380 -67 28 -42 31 64 9z m-53 -29 c65 -32 141 -93 132 -107
-3 -5 0 -8 8 -7 7 2 12 -5 12 -14 -1 -10 3 -16 9 -15 27 5 97 -190 97 -271 0
-24 -6 -32 -30 -41 -27 -9 -30 -8 -30 12 0 45 -40 167 -74 224 -67 114 -167
182 -296 202 -67 11 -172 2 -222 -18 -41 -16 -34 -4 12 19 71 36 140 50 235
47 75 -2 100 -8 147 -31z m-121 -42 c149 -44 254 -168 295 -350 l16 -76 -24
-24 c-28 -29 -125 -48 -328 -65 -128 -11 -419 -7 -440 6 -6 3 -10 50 -10 103
0 152 33 252 111 337 38 42 72 56 184 79 48 9 146 5 196 -10z m746 -298 c5 -4
-1 -14 -11 -21 -22 -16 -167 -78 -171 -73 -1 2 -5 24 -9 50 l-7 47 38 4 c54 7
151 2 160 -7z m-383 -140 c-149 -65 -133 -370 21 -424 26 -9 27 -11 7 -11 -30
-1 -59 14 -100 52 -55 53 -78 176 -50 270 17 57 86 127 124 127 l29 -1 -31
-13z m139 -48 c83 -98 67 -289 -29 -348 -41 -26 -73 -25 -115 3 -125 82 -106
349 27 386 42 11 85 -4 117 -41z m27 43 c0 -5 3 -18 7 -28 6 -16 5 -16 -10 -4
-19 15 -23 41 -7 41 6 0 10 -4 10 -9z m-297 -88 c-10 -24 -16 -67 -16 -114 -1
-63 4 -86 27 -133 31 -63 83 -106 128 -106 24 0 28 -4 28 -29 0 -82 -83 -211
-190 -295 -109 -85 -149 -101 -250 -101 -74 1 -93 5 -150 32 -36 17 -78 46
-95 63 l-30 32 30 -7 c23 -5 26 -4 15 4 -8 6 -23 11 -32 11 -22 0 -61 52 -91
121 -43 96 -78 284 -89 480 l-3 47 100 -4 c55 -2 166 -6 246 -8 111 -3 153 -8
178 -21 18 -9 35 -15 37 -12 8 8 -26 29 -59 37 l-32 8 40 2 c22 1 76 7 120 15
44 7 85 13 92 14 8 1 7 -10 -4 -36z m-710 -250 c12 -88 12 -92 -5 -76 -26 24
-58 117 -58 172 0 26 8 72 17 102 l17 54 9 -80 c4 -44 14 -121 20 -172z m1009
-161 c20 -53 48 -127 62 -164 l26 -67 -50 -51 c-68 -70 -159 -112 -256 -118
-41 -3 -74 -3 -74 0 0 8 81 192 126 285 24 50 46 110 48 133 3 35 9 44 37 60
19 10 36 19 39 19 3 1 22 -43 42 -97z m-995 46 c11 -18 54 -159 56 -183 1 -11
13 -29 27 -41 14 -12 22 -25 19 -28 -13 -13 -88 76 -102 122 -29 92 -29 175 0
130z m85 -258 c34 -20 138 -115 138 -126 0 -4 -13 -4 -29 -2 -17 2 -28 2 -26
-2 7 -11 -93 -42 -107 -34 -7 4 -10 3 -5 -1 9 -10 -51 -37 -64 -29 -11 7 -12
54 -1 54 4 0 8 15 8 33 0 30 37 127 48 127 3 0 20 -9 38 -20z m1079 -30 l40 0
-17 -28 c-9 -16 -24 -39 -34 -52 l-19 -25 -46 23 c-42 20 -45 25 -34 40 33 43
44 52 57 47 7 -3 32 -5 53 -5z m-441 -31 c0 -13 -4 -18 -12 -13 -10 6 -10 4 0
-8 10 -13 10 -17 -3 -21 -8 -4 -13 -12 -10 -19 2 -7 -2 -21 -10 -31 -16 -22
-55 -15 -56 11 0 14 -2 15 -7 2 -4 -8 -15 -16 -24 -16 -27 -2 -22 11 10 25 28
13 39 22 82 64 31 31 30 31 30 6z m359 -63 l43 -22 -47 -42 c-26 -23 -54 -42
-61 -42 -7 0 -26 16 -43 37 l-30 36 42 28 c23 15 44 28 47 28 3 0 25 -10 49
-23z m-513 -46 l28 -11 -36 -36 -36 -35 -41 24 c-33 20 -38 27 -28 37 10 11 8
12 -10 7 -12 -4 -24 -2 -29 5 -5 9 2 11 28 6 19 -3 41 -1 49 4 19 12 42 11 75
-1z m424 -72 c0 -4 -24 -14 -52 -22 -88 -25 -90 -25 -100 13 -11 41 -5 61 19
61 10 1 29 7 43 15 24 13 27 12 57 -23 18 -20 32 -40 33 -44z m-313 42 c19 0
24 -4 19 -16 -3 -9 -6 -25 -6 -37 0 -43 -11 -47 -75 -31 -33 9 -63 18 -68 21
-4 2 7 21 25 43 28 32 36 37 56 29 13 -5 35 -9 49 -9z m143 -41 c6 -23 9 -44
5 -47 -3 -3 -32 -8 -65 -10 -65 -5 -66 -4 -54 56 5 27 11 31 43 35 20 2 41 4
48 5 7 1 17 -16 23 -39z m-840 -500 c0 -6 -16 -9 -35 -7 -37 2 -47 14 -17 20
23 5 52 -2 52 -13z m567 -183 c-32 -13 -64 -29 -72 -36 -24 -20 -17 5 8 27 28
26 43 31 87 32 33 0 32 -1 -23 -23z m-538 -11 c15 -15 13 -15 -12 -6 -16 6
-39 11 -52 11 -13 0 -26 4 -30 9 -9 16 78 2 94 -14z m-37 -227 c-10 -11 -27
-21 -38 -23 -10 -2 -19 -4 -19 -6 0 -1 -12 -2 -26 -3 -15 -1 -26 3 -25 9 4 24
19 34 51 33 19 -1 37 1 40 4 3 2 12 5 21 5 12 0 12 -4 -4 -19z"/>
<path d="M3560 4730 c-8 -5 -10 -10 -5 -10 6 0 17 5 25 10 8 5 11 10 5 10 -5
0 -17 -5 -25 -10z"/>
<path d="M3757 4663 c-4 -6 0 -13 8 -17 8 -3 17 0 21 6 4 6 3 8 -4 4 -5 -3
-12 -1 -14 6 -3 8 -6 9 -11 1z"/>
<path d="M3840 4576 c0 -2 7 -7 16 -10 8 -3 12 -2 9 4 -6 10 -25 14 -25 6z"/>
<path d="M3732 4561 c44 -9 84 -33 121 -75 27 -29 29 -35 25 -108 -2 -43 0
-78 4 -78 12 0 9 149 -3 173 -25 48 -107 98 -156 96 -24 -1 -23 -2 9 -8z"/>
<path d="M3264 4369 c-3 -6 -2 -15 3 -20 5 -5 9 -1 9 11 0 23 -2 24 -12 9z"/>
<path d="M4030 3806 c0 -2 8 -10 18 -17 15 -13 16 -12 3 4 -13 16 -21 21 -21
13z"/>
<path d="M4067 3653 c-3 -3 16 -22 42 -43 27 -21 64 -62 82 -90 18 -28 35 -47
37 -41 9 27 -144 192 -161 174z"/>
<path d="M4206 3647 c3 -9 10 -17 16 -17 5 0 7 -4 3 -9 -3 -5 -1 -12 4 -15 22
-14 18 13 -5 35 -18 17 -23 19 -18 6z"/>
<path d="M4249 3533 c-13 -16 -12 -17 4 -4 9 7 17 15 17 17 0 8 -8 3 -21 -13z"/>
<path d="M4276 3532 c-3 -5 1 -9 9 -9 8 0 12 4 9 9 -3 4 -7 8 -9 8 -2 0 -6 -4
-9 -8z"/>
<path d="M2696 4552 c-3 -5 1 -15 8 -21 11 -10 14 -9 12 3 -3 21 -13 29 -20
18z"/>
<path d="M2744 4487 c2 -13 8 -32 15 -43 12 -19 12 -19 6 1 -4 11 -10 26 -13
34 -4 10 -1 12 9 6 12 -8 12 -6 0 8 -18 22 -20 21 -17 -6z"/>
<path d="M2484 4596 c1 -8 5 -18 8 -22 4 -3 5 1 4 10 -1 8 -5 18 -8 22 -4 3
-5 -1 -4 -10z"/>
<path d="M2143 4588 c1 -7 -4 -12 -11 -10 -8 1 -11 -2 -7 -8 5 -8 11 -8 21 1
7 6 11 15 8 20 -8 13 -14 11 -11 -3z"/>
<path d="M2066 4523 c-6 -14 -5 -15 5 -6 7 7 10 15 7 18 -3 3 -9 -2 -12 -12z"/>
<path d="M2056 4492 c-2 -4 -1 -14 4 -22 7 -11 9 -9 7 8 -1 24 -3 26 -11 14z"/>
<path d="M2123 4315 c-36 -16 -53 -42 -53 -83 0 -29 1 -30 63 -36 64 -7 217 7
262 24 30 11 33 40 6 64 -47 42 -210 61 -278 31z m220 -38 c79 -33 37 -48
-136 -50 -69 0 -101 3 -110 13 -9 10 -9 11 1 6 8 -5 12 1 13 21 0 15 3 22 6
16 2 -7 9 -13 14 -13 6 0 8 4 5 9 -18 28 139 26 207 -2z"/>
<path d="M2455 4270 c-3 -5 -1 -10 4 -10 6 0 11 5 11 10 0 6 -2 10 -4 10 -3 0
-8 -4 -11 -10z"/>
<path d="M2466 4211 c-4 -5 -2 -12 3 -15 5 -4 12 -2 15 3 4 5 2 12 -3 15 -5 4
-12 2 -15 -3z"/>
<path d="M2435 4201 c-6 -11 13 -26 22 -17 4 3 1 6 -6 6 -7 0 -9 5 -6 10 3 6
4 10 1 10 -3 0 -7 -4 -11 -9z"/>
<path d="M2883 4195 c0 -8 4 -12 9 -9 5 3 6 10 3 15 -9 13 -12 11 -12 -6z"/>
<path d="M2354 4105 c-24 -18 -7 -19 26 0 16 9 19 14 9 15 -8 0 -24 -7 -35
-15z"/>
<path d="M2043 4080 c-18 -11 -33 -24 -33 -30 0 -15 17 -12 23 4 10 24 82 41
113 27 29 -13 47 -6 24 9 -26 16 -93 11 -127 -10z"/>
<path d="M2210 4076 c0 -2 7 -7 16 -10 8 -3 12 -2 9 4 -6 10 -25 14 -25 6z"/>
<path d="M2513 4065 c0 -8 7 -11 15 -7 10 3 13 1 8 -6 -3 -6 -1 -14 5 -18 7
-4 9 -3 5 4 -3 5 -1 12 5 14 6 2 0 9 -13 15 -19 9 -25 8 -25 -2z"/>
<path d="M2434 4059 c-29 -8 -77 -59 -55 -59 5 0 16 11 25 25 20 30 42 35 26
6 -14 -28 -13 -76 5 -116 39 -96 105 -17 75 91 -15 52 -33 64 -76 53z m43 -41
c21 -28 9 -127 -12 -106 -14 14 -16 70 -3 86 9 11 10 14 1 8 -8 -4 -13 -1 -13
8 0 19 14 21 27 4z"/>
<path d="M2079 4025 c-15 -8 -30 -22 -33 -31 -10 -27 0 -27 18 1 22 34 38 32
25 -2 -12 -31 -5 -93 13 -127 7 -11 11 -34 10 -51 -1 -16 4 -38 12 -47 26 -34
136 -65 136 -38 0 6 -17 10 -38 10 -63 0 -109 45 -96 95 7 29 50 55 89 55 24
0 25 2 23 53 l-2 52 -3 -47 c-4 -43 -7 -48 -29 -48 -20 0 -24 5 -24 29 0 16
-4 41 -10 55 -7 19 -6 26 2 26 8 0 8 3 3 9 -17 17 -69 20 -96 6z m66 -52 c4
-16 8 -36 10 -45 2 -10 -1 -18 -7 -18 -5 0 -6 -4 -3 -10 3 -5 1 -10 -4 -10 -6
0 -14 -1 -18 -2 -10 -4 -13 33 -6 75 7 44 20 48 28 10z"/>
<path d="M2096 3737 c3 -10 9 -15 12 -12 3 3 0 11 -7 18 -10 9 -11 8 -5 -6z"/>
<path d="M2545 3741 c-3 -5 -2 -12 3 -15 5 -3 9 1 9 9 0 17 -3 19 -12 6z"/>
<path d="M2115 3711 c-6 -11 13 -26 22 -17 4 3 0 6 -8 6 -11 0 -11 2 1 10 9 6
10 10 3 10 -6 0 -14 -4 -18 -9z"/>
<path d="M2293 3713 c4 -6 2 -13 -5 -15 -8 -3 -6 -6 4 -10 17 -7 19 15 3 29
-4 4 -5 3 -2 -4z"/>
<path d="M2481 3674 c-33 -23 -150 -64 -185 -64 -9 0 -16 -5 -16 -10 0 -26
184 37 245 84 34 26 -6 17 -44 -10z"/>
<path d="M2500 3630 c-9 -6 -10 -10 -3 -10 6 0 15 5 18 10 8 12 4 12 -15 0z"/>
<path d="M2126 3591 c-4 -5 -2 -12 4 -16 15 -9 12 -28 -2 -19 -7 4 -9 3 -5 -1
4 -5 14 -10 22 -11 11 -2 12 2 5 16 -5 9 -7 20 -4 23 3 3 1 8 -5 11 -5 4 -12
2 -15 -3z"/>
<path d="M2212 3506 c-13 -21 -7 -58 10 -67 10 -6 44 -9 76 -7 l57 3 3 38 c2
20 0 37 -5 38 -72 4 -136 2 -141 -5z m122 -31 c-4 -11 -21 -15 -55 -15 -46 0
-59 7 -42 23 3 4 28 7 54 7 39 0 47 -3 43 -15z"/>
<path d="M2647 3507 c-3 -8 1 -14 8 -14 7 0 11 6 8 14 -3 7 -6 13 -8 13 -2 0
-5 -6 -8 -13z"/>
<path d="M2942 3421 c-11 -7 -11 -9 0 -14 9 -3 15 1 15 9 0 8 -1 14 -1 14 -1
0 -7 -4 -14 -9z"/>
<path d="M2020 3351 c-8 -6 -18 -7 -24 -4 -5 3 -6 1 -2 -5 5 -9 13 -9 27 -2
10 6 19 13 19 15 0 7 -3 6 -20 -4z"/>
<path d="M3026 3352 c-3 -5 1 -9 9 -9 8 0 12 4 9 9 -3 4 -7 8 -9 8 -2 0 -6 -4
-9 -8z"/>
<path d="M2896 3302 c-3 -5 1 -9 9 -9 8 0 12 4 9 9 -3 4 -7 8 -9 8 -2 0 -6 -4
-9 -8z"/>
<path d="M3909 4718 c-6 -20 -6 -39 0 -42 4 -3 7 6 7 20 0 20 -4 32 -7 22z"/>
<path d="M3869 4702 c9 -7 10 -11 2 -15 -7 -4 -8 -5 -1 -3 16 2 14 20 -2 24
-10 3 -10 2 1 -6z"/>
<path d="M2012 4627 c-8 -10 -6 -13 11 -14 12 0 16 1 9 4 -6 3 -10 9 -6 14 8
14 -2 11 -14 -4z"/>
<path d="M3986 4627 c3 -10 9 -15 12 -12 3 3 0 11 -7 18 -10 9 -11 8 -5 -6z"/>
<path d="M3965 4611 c-3 -5 -2 -12 3 -15 5 -3 9 1 9 9 0 17 -3 19 -12 6z"/>
<path d="M4104 3823 c4 -4 16 -8 28 -10 12 -2 19 -1 16 2 -3 3 -16 8 -28 10
-12 2 -20 1 -16 -2z"/>
<path d="M4370 3579 c13 -23 22 -25 13 -2 -5 12 -3 14 8 8 8 -5 11 -4 6 0 -4
5 -14 10 -22 11 -12 2 -12 -2 -5 -17z"/>
<path d="M1965 3509 c-4 -6 -5 -12 -2 -15 2 -3 7 2 10 11 7 17 1 20 -8 4z"/>
<path d="M3138 3303 c7 -3 16 -2 19 1 4 3 -2 6 -13 5 -11 0 -14 -3 -6 -6z"/>
<path d="M3850 3266 c0 -2 8 -10 18 -17 15 -13 16 -12 3 4 -13 16 -21 21 -21
13z"/>
<path d="M3021 3232 c-7 -13 -6 -19 2 -19 7 0 13 9 13 19 0 10 -1 18 -3 18 -1
0 -7 -8 -12 -18z"/>
<path d="M2448 3213 c7 -3 16 -2 19 1 4 3 -2 6 -13 5 -11 0 -14 -3 -6 -6z"/>
<path d="M2900 3174 c-82 -42 -179 -58 -275 -45 -38 5 -78 12 -87 16 -10 4
-18 3 -18 -3 0 -30 199 -42 293 -17 61 16 151 58 162 75 10 15 -4 11 -75 -26z"/>
<path d="M1860 3150 c-11 -7 -11 -10 -2 -10 7 0 11 -4 8 -8 -8 -13 33 -7 44 6
7 8 7 9 -1 3 -14 -11 -41 -3 -33 10 7 11 3 11 -16 -1z"/>
<path d="M3603 3105 c0 -8 4 -12 9 -9 5 3 6 10 3 15 -9 13 -12 11 -12 -6z"/>
<path d="M3616 3082 c-3 -5 1 -9 9 -9 8 0 12 4 9 9 -3 4 -7 8 -9 8 -2 0 -6 -4
-9 -8z"/>
<path d="M2614 2852 c-9 -5 -8 -10 1 -19 11 -10 13 -9 12 7 -1 11 -1 20 -2 20
0 0 -5 -4 -11 -8z"/>
<path d="M2649 2858 c-6 -21 -5 -37 2 -32 5 3 7 9 4 14 -3 4 1 11 7 13 10 4
10 6 1 6 -7 1 -13 0 -14 -1z"/>
<path d="M2680 2836 c0 -2 8 -10 18 -17 15 -13 16 -12 3 4 -13 16 -21 21 -21
13z"/>
<path d="M2673 2805 c0 -8 4 -12 9 -9 5 3 6 10 3 15 -9 13 -12 11 -12 -6z"/>
<path d="M2945 2791 c-3 -5 -2 -12 3 -15 5 -3 9 1 9 9 0 17 -3 19 -12 6z"/>
<path d="M2190 2768 c-41 -5 -85 -7 -97 -5 -47 8 -21 -20 34 -37 l58 -17 57
28 c32 15 58 31 58 36 0 8 -7 8 -110 -5z m15 -28 c-7 -12 -42 -13 -49 -2 -2 4
9 9 25 10 19 2 28 -2 24 -8z"/>
<path d="M2910 2770 c-9 -6 -10 -10 -3 -10 6 0 15 5 18 10 8 12 4 12 -15 0z"/>
<path d="M1791 2644 c0 -11 3 -14 6 -6 3 7 2 16 -1 19 -3 4 -6 -2 -5 -13z"/>
<path d="M2704 2565 c-4 -8 -10 -15 -16 -15 -5 0 -6 5 -2 12 4 7 3 8 -5 4 -12
-8 -6 -26 9 -26 5 0 14 9 20 20 6 11 8 20 5 20 -3 0 -8 -7 -11 -15z"/>
<path d="M2005 2510 c-3 -6 1 -7 9 -4 18 7 21 14 7 14 -6 0 -13 -4 -16 -10z"/>
<path d="M1846 2388 c3 -5 10 -6 15 -3 13 9 11 12 -6 12 -8 0 -12 -4 -9 -9z"/>
<path d="M2065 2360 c-4 -6 -11 -7 -17 -4 -7 4 -8 2 -4 -5 6 -9 11 -9 22 0 14
11 18 19 10 19 -3 0 -8 -5 -11 -10z"/>
<path d="M3490 2360 c8 -5 20 -10 25 -10 6 0 3 5 -5 10 -8 5 -19 10 -25 10 -5
0 -3 -5 5 -10z"/>
<path d="M1769 2293 c-13 -16 -12 -17 4 -4 9 7 17 15 17 17 0 8 -8 3 -21 -13z"/>
<path d="M2860 2301 c0 -6 4 -13 10 -16 6 -3 7 1 4 9 -7 18 -14 21 -14 7z"/>
<path d="M2760 2246 c7 -7 13 -7 20 0 6 6 3 10 -10 10 -13 0 -16 -4 -10 -10z"/>
<path d="M4658 2063 c7 -3 16 -2 19 1 4 3 -2 6 -13 5 -11 0 -14 -3 -6 -6z"/>
<path d="M2905 2039 c-11 -16 -1 -19 13 -3 7 8 8 14 3 14 -5 0 -13 -5 -16 -11z"/>
</g>
<g transform="translate(0.000000,600.000000) scale(0.100000,-0.100000)"
fill="#f2ead8" stroke="none">
<path d="M870 1793 l0 -228 195 0 195 0 0 33 c0 29 3 32 33 32 l32 0 0 65 0
65 -32 0 c-31 0 -33 2 -33 36 0 34 2 35 31 32 l31 -3 1 68 2 69 -32 -5 c-32
-6 -33 -5 -33 29 l0 34 -195 0 -195 0 0 -227z m114 195 c-3 -4 -1 -8 5 -8 5 0
11 6 14 13 2 6 8 9 12 4 12 -10 -26 -36 -45 -30 -10 3 -11 2 -4 -4 6 -4 11
-34 10 -69 -1 -85 8 -94 103 -94 55 -1 71 -3 59 -11 -9 -5 -46 -7 -82 -5 -63
5 -65 4 -74 -22 -5 -15 -8 -38 -7 -52 2 -14 -2 -31 -7 -37 -7 -9 -7 -13 1 -13
7 0 9 -5 6 -10 -3 -6 2 -18 11 -28 14 -14 36 -17 111 -17 51 0 93 4 93 8 0 5
5 5 12 1 7 -4 8 -3 4 4 -5 8 -42 12 -107 12 l-99 0 0 65 0 65 98 0 98 0 -4
-59 c-5 -62 5 -79 35 -62 10 6 13 11 7 11 -7 0 -15 7 -18 16 -3 8 -2 13 2 10
10 -6 -1 74 -12 93 -4 7 -18 17 -30 22 l-21 10 22 -5 c28 -5 47 37 41 94 -2
22 1 41 6 43 6 2 -1 15 -16 30 -14 14 -29 23 -32 20 -3 -4 -6 -1 -6 5 0 7 14
12 30 12 23 0 30 -5 30 -19 0 -22 38 -53 53 -44 6 3 7 1 3 -5 -4 -7 -2 -12 3
-12 6 0 11 -16 11 -35 0 -26 -4 -35 -17 -35 -24 0 -53 -30 -53 -53 0 -24 37
-67 57 -67 14 0 16 -21 7 -57 -4 -13 -10 -20 -15 -18 -10 7 -44 -25 -45 -42
-1 -7 -2 -16 -2 -20 -1 -5 -76 -7 -167 -5 l-164 3 -3 187 c-2 103 -1 195 1
205 3 13 13 17 47 15 24 0 41 -5 38 -10z m176 1 c0 -13 -117 -11 -125 1 -4 7
17 10 59 9 36 -1 66 -5 66 -10z m33 -95 l-1 -67 -96 -1 -96 -1 0 68 0 67 98 0
97 0 -2 -66z"/>
<path d="M1248 1923 c7 -3 16 -2 19 1 4 3 -2 6 -13 5 -11 0 -14 -3 -6 -6z"/>
<path d="M1450 1793 l0 -228 197 2 198 2 2 31 3 30 -136 0 -135 0 3 195 3 195
-67 0 -68 0 0 -227z m101 51 c-2 -100 1 -159 8 -173 8 -15 8 -21 1 -21 -6 0
-2 -10 9 -21 17 -18 34 -22 113 -26 51 -2 94 -6 97 -9 7 -6 -265 -5 -283 2
-14 5 -16 32 -16 198 0 106 2 195 5 197 2 3 19 5 37 4 l33 0 -4 -151z"/>
<path d="M1910 1825 l0 -195 36 0 c34 0 35 -2 32 -31 l-3 -30 163 -2 162 -2 0
33 c0 30 2 32 35 32 l35 0 0 195 0 196 -66 -3 -66 -3 2 -192 1 -193 -101 0
-100 0 0 195 0 195 -65 0 -65 0 0 -195z m109 -36 c0 -95 4 -166 10 -172 6 -6
60 -11 121 -11 86 -1 109 2 105 12 -2 7 2 15 10 19 10 3 12 9 6 17 -5 6 -10
86 -11 179 l-1 167 28 0 c53 0 55 -4 52 -171 -2 -159 -5 -183 -20 -174 -10 7
-44 -25 -45 -42 -1 -7 -2 -16 -2 -20 -1 -5 -63 -7 -138 -5 -103 2 -135 6 -131
15 7 19 -20 50 -45 52 -13 1 -23 7 -22 13 1 7 2 81 3 166 l1 155 33 3 c43 4
45 -5 46 -203z"/>
<path d="M2430 1792 l0 -228 65 1 65 0 0 98 0 97 130 0 130 0 0 36 0 36 -130
-3 -130 -4 0 68 0 68 165 -3 165 -3 0 33 0 32 -230 0 -230 0 0 -228z m140 199
c0 -5 -7 -14 -15 -21 -11 -9 -15 -32 -15 -81 0 -73 11 -89 60 -89 12 0 18 -4
15 -10 -4 -6 -11 -8 -16 -4 -5 3 -21 -2 -34 -10 -23 -15 -25 -22 -25 -100 l0
-84 -33 -4 c-43 -5 -60 12 -47 46 5 13 6 40 3 60 -3 19 -2 96 2 171 l7 135 49
0 c27 0 49 -4 49 -9z m290 -2 c0 -5 -63 -9 -140 -9 -77 0 -140 4 -140 9 0 5
63 9 140 8 77 0 140 -4 140 -8z m-90 -195 c-59 -8 -140 -8 -140 -1 0 4 37 6
83 6 45 -1 71 -3 57 -5z"/>
<path d="M2950 1793 l0 -228 65 0 65 0 0 98 0 97 130 0 130 0 0 36 0 36 -130
-4 -130 -3 0 68 0 68 165 -3 165 -3 0 33 0 32 -230 0 -230 0 0 -227z m423 191
c-4 -11 -8 -12 -13 -4 -5 7 -48 10 -138 9 -158 -3 -167 -9 -167 -100 1 -86 8
-91 137 -87 67 2 108 -1 108 -7 0 -6 -43 -10 -111 -10 -132 1 -132 0 -133
-117 l-1 -78 -37 0 -38 0 0 198 c0 109 3 202 7 205 3 4 93 7 199 7 172 0 193
-2 187 -16z"/>
<path d="M3540 1793 l0 -228 195 0 195 0 0 33 0 32 -130 0 -130 0 0 195 0 195
-65 0 -65 0 0 -227z m102 23 c2 -113 -1 -184 -7 -188 -6 -4 -2 -8 8 -8 10 0
16 -3 14 -7 -3 -5 37 -7 89 -5 65 2 94 0 94 -8 0 -8 -37 -10 -125 -8 -79 2
-125 -1 -125 -7 0 -5 -6 -1 -12 10 -12 19 -23 378 -13 395 2 4 20 7 39 7 l35
0 3 -181z m251 -213 c-7 -2 -21 -2 -30 0 -10 3 -4 5 12 5 17 0 24 -2 18 -5z"/>
<path d="M4060 1987 l0 -33 65 4 65 4 0 -166 0 -166 -65 0 -65 0 0 -32 0 -33
195 0 195 0 0 33 0 32 -65 0 -65 0 0 166 0 166 65 -4 65 -4 0 33 0 33 -195 0
-195 0 0 -33z m120 1 c0 -4 -20 -8 -45 -8 -25 0 -45 5 -45 10 0 7 19 10 45 9
25 -2 45 -6 45 -11z m34 0 c3 5 49 10 102 11 61 1 93 -2 90 -8 -4 -6 -22 -9
-41 -7 -23 1 -42 -4 -55 -16 -18 -17 -20 -32 -20 -172 0 -138 2 -154 20 -174
15 -16 29 -20 60 -18 22 2 43 0 45 -5 3 -4 -73 -8 -167 -8 -95 -1 -167 3 -160
7 7 5 31 7 54 6 66 -3 71 10 72 197 1 119 -2 160 -11 164 -7 2 -13 12 -13 22
0 14 2 15 9 4 5 -8 11 -9 15 -3z"/>
<path d="M4517 1793 l3 -226 65 -1 66 -1 -2 130 -1 130 31 3 c29 3 31 2 31
-32 0 -35 1 -36 36 -36 34 0 35 -1 32 -32 -3 -32 -2 -33 30 -30 l32 3 0 -68 0
-68 65 0 65 0 0 228 0 227 -65 0 -65 0 0 -99 0 -99 -32 3 c-30 2 -33 5 -30 34
3 30 2 31 -32 31 -35 0 -36 1 -36 36 0 34 -1 35 -32 32 -32 -3 -33 -2 -30 30
l2 32 -67 0 -68 0 2 -227z m103 188 c0 -22 31 -51 54 -51 17 0 18 -2 6 -10
-10 -6 -11 -10 -2 -10 6 0 12 -7 12 -15 0 -18 36 -38 52 -29 8 5 9 2 5 -9 -3
-10 -2 -17 3 -17 5 0 12 -9 15 -20 5 -15 15 -20 40 -20 18 0 35 -3 38 -7 2 -5
3 -3 1 3 -1 6 5 16 14 23 14 10 16 26 14 95 l-3 83 38 -6 38 -6 3 -198 2 -197
-34 0 c-42 0 -53 14 -50 63 2 42 -16 67 -48 67 -17 0 -19 4 -13 27 4 16 3 25
0 21 -4 -4 -14 0 -22 8 -9 8 -22 13 -29 10 -16 -6 -23 4 -26 36 -2 21 -8 24
-45 26 -57 2 -63 -11 -63 -148 l0 -112 -35 4 c-19 2 -37 -1 -39 -7 -2 -5 -5
85 -5 202 l-1 212 40 -2 c28 -1 40 -6 40 -16z"/>
<path d="M4860 1750 c0 -5 5 -10 11 -10 5 0 7 5 4 10 -3 6 -8 10 -11 10 -2 0
-4 -4 -4 -10z"/>
<path d="M5037 1795 l2 -225 226 -3 225 -2 0 33 0 32 -162 0 -163 0 0 65 0 65
133 0 132 0 0 35 0 36 -131 -2 -131 -1 0 63 0 64 161 0 161 0 0 33 0 32 -227
0 -228 0 2 -225z m83 193 c0 -9 4 -8 10 2 8 12 10 12 10 1 0 -10 4 -11 13 -3
16 13 293 16 301 3 4 -6 -45 -9 -138 -8 -128 2 -147 0 -158 -15 -7 -10 -19
-18 -28 -18 -10 0 -11 -3 -3 -8 7 -5 11 -30 9 -72 -1 -35 1 -55 4 -44 7 18 7
18 14 -3 7 -22 12 -23 124 -23 64 0 112 -4 105 -8 -6 -4 -55 -7 -110 -7 -85 0
-100 -3 -116 -20 -13 -14 -17 -29 -14 -52 4 -19 1 -34 -6 -37 -9 -3 -9 -7 -1
-13 6 -4 10 -15 9 -24 -5 -28 59 -41 188 -37 64 2 117 -1 117 -5 0 -4 -88 -7
-195 -7 l-195 2 0 197 c0 109 3 201 7 204 11 12 53 7 53 -5z"/>
<path d="M3995 1621 c-3 -5 -2 -12 3 -15 5 -3 9 1 9 9 0 17 -3 19 -12 6z"/>
<path d="M840 1550 c0 -5 5 -10 11 -10 5 0 7 5 4 10 -3 6 -8 10 -11 10 -2 0
-4 -4 -4 -10z"/>
<path d="M4000 1541 c0 -6 4 -13 10 -16 6 -3 7 1 4 9 -7 18 -14 21 -14 7z"/>
</g>
</svg>
